<?xml version="1.0" encoding="UTF-8" standalone="no" ?>
<!DOCTYPE svg PUBLIC "-//W3C//DTD SVG 1.1//EN" "http://www.w3.org/Graphics/SVG/1.1/DTD/svg11.dtd">
<svg xmlns="http://www.w3.org/2000/svg" xmlns:xlink="http://www.w3.org/1999/xlink" version="1.1" width="400" height="400" viewBox="0 0 400 400" xml:space="preserve">
<desc>Created with Fabric.js 3.6.2</desc>
<defs>
</defs>
<g transform="matrix(4.17 0 0 4.17 200 200)" id="Layer_1"  >
<path style="stroke: none; stroke-width: 1; stroke-dasharray: none; stroke-linecap: butt; stroke-dashoffset: 0; stroke-linejoin: miter; stroke-miterlimit: 4; fill: rgb(244,67,54); fill-rule: nonzero; opacity: 1;"  transform=" translate(-24, -24)" d="M 24 2 l 4.506 5.029 L 35 5 l 1.465 6.535 L 43 13 l -2 6.494 L 46 24 l -5 4.506 L 43 35 l -6.535 1.465 L 35 43 l -6.494 -2.029 L 24 46 l -4.506 -5.029 L 13 43 l -1.465 -6.535 L 5 35 l 2 -6.494 L 2 24 l 5 -4.506 L 5 13 l 6.535 -1.465 L 13 5 l 6.494 2.029 L 24 2 z" stroke-linecap="round" />
</g>
<g transform="matrix(4.17 0 0 4.17 200 200)" id="surface1_4_"  >
<path style="stroke: none; stroke-width: 1; stroke-dasharray: none; stroke-linecap: butt; stroke-dashoffset: 0; stroke-linejoin: miter; stroke-miterlimit: 4; fill: rgb(255,255,255); fill-rule: nonzero; opacity: 1;"  transform=" translate(-24, -24)" d="M 20 32.301 l -1.699 -1 L 28 15.699 l 1.699 1 L 20 32.301 z" stroke-linecap="round" />
</g>
<g transform="matrix(4.17 0 0 4.17 179.17 177.08)" id="surface1_4_"  >
<path style="stroke: none; stroke-width: 1; stroke-dasharray: none; stroke-linecap: butt; stroke-dashoffset: 0; stroke-linejoin: miter; stroke-miterlimit: 4; fill: rgb(255,255,255); fill-rule: nonzero; opacity: 1;"  transform=" translate(-19, -18.5)" d="M 19 14 c -1.801 0 -4 1.102 -4 4 v 1 c 0 1.801 1.102 4 4 4 c 2.102 0 4 -1.398 4 -4 v -1 C 23 15.5 21.301 14 19 14 z M 20.801 19 c 0 1.301 -0.699 2 -1.801 2 c -0.898 0 -1.801 -0.602 -1.801 -2 v -1 c 0 -1.398 0.902 -2.102 1.801 -2.102 c 1.398 0 1.801 1.301 1.801 2.102 V 19 z" stroke-linecap="round" />
</g>
<g transform="matrix(4.17 0 0 4.17 220.83 222.92)" id="surface1_4_"  >
<path style="stroke: none; stroke-width: 1; stroke-dasharray: none; stroke-linecap: butt; stroke-dashoffset: 0; stroke-linejoin: miter; stroke-miterlimit: 4; fill: rgb(255,255,255); fill-rule: nonzero; opacity: 1;"  transform=" translate(-29, -29.5)" d="M 29 34 c 1.801 0 4 -1.102 4 -4 v -1 c 0 -1.801 -1.102 -4 -4 -4 c -2.102 0 -4 1.398 -4 4 v 1 C 25 32.5 26.699 34 29 34 z M 27.199 29 c 0 -1.301 0.699 -2 1.801 -2 c 0.898 0 1.801 0.602 1.801 2 v 1 c 0 1.398 -0.902 2.102 -1.801 2.102 c -1.398 0 -1.801 -1.301 -1.801 -2.102 V 29 z" stroke-linecap="round" />
</g>
</svg>